{"glyphs":{":":{"x_min":0,"x_max":344,"ha":344,"o":"m 170 313 b 198 313 221 335 221 361 b 221 388 198 409 170 409 b 143 409 120 388 120 361 b 120 335 143 313 170 313 z m 170 92 b 142 92 120 71 120 45 b 120 18 142 -3 170 -3 b 198 -3 220 18 220 45 b 220 71 198 92 170 92 z"},"$":{"x_min":0,"x_max":808,"ha":808,"o":"m 703 739 b 719 797 712 864 645 883 b 618 891 588 892 558 887 l 566 924 b 471 924 476 945 470 858 b 326 784 219 596 416 433 l 440 412 l 440 411 l 334 -63 b -14 -103 3 324 327 345 b 344 346 354 426 327 424 b -8 402 -102 -98 331 -77 l 325 -105 b 396 -105 415 -126 419 -63 b 659 4 711 288 472 492 b 575 539 676 639 703 739 z m 473 504 l 552 863 b 586 871 618 873 643 866 b 704 850 706 792 693 741 b 667 646 571 551 473 504 z m 421 -39 l 451 401 b 603 245 577 34 421 -39 z m 468 826 l 447 514 b 307 644 370 764 468 826 z"},"?":{"x_min":0,"x_max":674,"ha":674,"o":"m 311 923 b 57 903 -23 485 253 485 b 253 548 269 522 217 528 b 22 551 97 894 312 911 b 425 920 464 852 461 746 b 454 502 238 405 207 27 b 204 -12 238 3 241 24 b 271 274 527 487 534 735 b 538 848 431 932 311 923 z m 210 -16 b 185 -16 165 -35 165 -59 b 165 -83 185 -103 210 -103 b 235 -103 256 -83 256 -59 b 256 -35 235 -16 210 -16 z"},"<":{"x_min":0,"x_max":629,"ha":629,"o":"m 334 279 b 276 329 210 375 148 407 b 254 487 500 605 491 762 b 486 853 252 727 443 678 b 359 572 142 460 25 451 b -9 449 -8 366 24 363 b 141 355 359 243 443 137 b 250 88 489 -39 491 56 b 491 136 386 233 334 279 z"},"'":{"x_min":0,"x_max":215,"ha":215,"o":"m 108 571 b 87 571 71 555 71 534 b 71 513 87 497 108 497 b 119 497 128 501 135 508 b 131 496 123 487 113 481 b 103 475 110 469 116 456 b 135 465 144 497 146 520 b 149 545 136 571 108 571 z"},"=":{"x_min":0,"x_max":1027,"ha":1027,"o":"m 481 270 l 130 307 b 131 151 311 238 481 258 l 825 220 b 824 376 650 290 481 270 z m 481 563 l 825 525 b 824 681 650 595 481 575 l 130 612 b 131 456 311 542 481 563 z"},"a":{"x_min":0,"x_max":460,"ha":460,"o":"m 460 304 b 445 245 386 23 315 24 b 251 24 309 284 328 370 b 333 393 241 398 237 370 b 223 265 185 27 95 25 b 10 24 61 366 152 366 b 166 366 203 365 207 303 b 207 298 216 294 217 301 b 221 360 180 389 131 389 b -64 388 -94 0 66 0 b 143 0 187 88 214 184 b 210 89 224 0 292 0 b 396 0 452 221 472 304 z"},"L":{"x_min":0,"x_max":786,"ha":786,"o":"m 36 648 b 85 563 185 495 345 493 b 380 492 420 496 461 504 b 424 334 394 152 331 34 b 276 62 219 81 157 82 b -39 84 -57 -109 147 -111 b 248 -112 321 -77 375 -21 b 543 -150 698 -371 896 -371 b 1168 -371 1198 -38 1012 -38 b 886 -38 868 -139 948 -188 b 965 -158 968 -171 963 -167 b 918 -131 942 -50 1012 -50 b 1140 -50 1115 -283 887 -283 b 710 -284 557 -110 391 -2 b 493 123 521 336 548 526 b 650 559 749 616 806 692 b 980 922 706 1094 557 810 b 516 731 488 626 464 517 b 422 508 381 504 345 505 b 190 507 94 571 47 653 z m 601 787 b 693 1058 952 906 797 700 b 742 627 648 572 550 540 b 564 632 578 719 601 787 z m 143 -99 b -34 -100 -27 73 157 70 b 217 69 270 48 321 16 b 279 -54 223 -99 143 -99 z"},"3":{"x_min":0,"x_max":625,"ha":625,"o":"m 265 500 b 554 577 572 919 270 923 b 11 928 -26 583 162 551 b 178 616 201 624 152 645 b 22 698 60 915 270 911 b 467 907 433 539 198 500 b 192 499 191 487 200 488 b 532 521 488 -95 194 -94 b -61 -94 -107 240 65 316 b 109 335 85 353 70 409 b -147 357 -120 -106 194 -106 b 582 -106 653 473 265 500 z"},";":{"x_min":0,"x_max":376,"ha":376,"o":"m 189 313 b 217 313 239 335 239 361 b 239 388 217 409 189 409 b 161 409 139 388 139 361 b 139 335 161 313 189 313 z m 180 92 b 152 92 130 71 130 45 b 130 18 152 -3 180 -3 b 194 -3 207 2 216 11 b 211 -5 200 -16 187 -24 b 173 -32 182 -39 190 -56 b 216 -44 228 -3 231 26 b 235 59 218 92 180 92 z"},"J":{"x_min":0,"x_max":902,"ha":902,"o":"m 608 613 b 609 619 597 618 596 615 b 581 543 516 508 457 508 b 319 508 317 686 492 747 b 568 774 664 789 745 829 b 707 647 687 388 646 154 b 574 224 491 274 376 274 b -77 274 -138 -422 287 -426 b 852 -433 757 659 866 930 b 875 952 794 987 786 975 b 711 861 576 845 469 815 b 222 746 280 492 459 492 b 502 492 589 518 608 613 z m 284 -415 b -111 -418 -70 262 376 262 b 486 262 569 210 642 136 b 588 -160 496 -413 284 -415 z"},"V":{"x_min":0,"x_max":553,"ha":553,"o":"m 1028 1264 b 608 950 337 227 195 -199 b 216 99 207 728 42 939 b 38 944 28 942 26 937 b 24 932 21 927 35 927 b 201 706 130 54 103 -218 b 102 -234 186 -264 194 -240 b 335 189 612 941 1061 1222 z"},"\"":{"x_min":0,"x_max":306,"ha":306,"o":"m 88 571 b 67 571 51 555 51 534 b 51 513 67 497 88 497 b 99 497 108 501 115 508 b 111 496 103 487 93 481 b 83 475 90 469 96 456 b 115 465 124 497 126 520 b 129 545 116 571 88 571 z m 198 571 b 177 571 161 555 161 534 b 161 513 177 497 198 497 b 209 497 218 501 225 508 b 221 496 213 487 203 481 b 193 475 200 469 206 456 b 225 465 234 497 236 520 b 239 545 226 571 198 571 z"},"7":{"x_min":0,"x_max":518,"ha":518,"o":"m 361 421 b 400 588 441 746 450 926 l 444 926 l 438 927 b 394 746 173 681 83 797 b 41 851 56 834 -27 811 b 66 618 353 700 435 881 b 418 713 357 563 301 402 b 265 391 234 385 231 410 l 219 409 b 223 374 257 377 296 388 b 245 240 200 83 198 -105 b 287 -105 288 -126 291 -49 b 297 123 327 269 358 407 b 391 417 417 420 417 393 l 429 393 b 429 430 399 430 361 421 z"},"S":{"x_min":0,"x_max":808,"ha":808,"o":"m 445 1090 b 25 1078 12 448 412 491 b 424 479 436 468 451 456 b 719 233 611 -131 264 -90 b -39 -54 -39 317 278 337 b 297 338 308 426 278 424 b -63 401 -116 -57 263 -102 b 681 -152 830 249 512 520 b 626 572 737 682 767 792 b 784 856 777 930 703 951 b 540 999 171 757 401 502 b 21 477 53 1047 447 1060 z m 701 932 b 768 914 770 851 755 795 b 726 687 614 578 502 529 b 225 762 556 972 701 932 z"},"}":{"x_min":0,"x_max":833,"ha":833,"o":"m 728 423 b 687 519 672 689 682 801 b 820 777 797 925 724 925 b 697 925 680 880 672 816 b 569 848 404 1018 310 860 b 351 849 387 825 409 854 b 473 941 580 828 671 804 b 659 685 676 509 722 410 b 675 312 658 134 670 15 b 580 -9 473 -122 409 -36 b 387 -6 351 -30 310 -41 b 404 -199 569 -28 672 3 b 680 -62 697 -106 724 -106 b 796 -106 820 41 683 18 b 673 131 687 303 728 398 b 869 132 863 670 728 423 z m 724 913 b 782 913 802 789 683 813 b 690 872 703 913 724 913 z m 724 -94 b 704 -94 690 -53 684 6 b 802 29 781 -94 724 -94 z"},"Z":{"x_min":0,"x_max":857,"ha":857,"o":"m 864 -311 b 787 -230 704 -160 624 -94 b 697 32 740 169 741 282 b 744 520 562 562 407 474 b 535 596 727 792 649 912 b 548 1068 65 855 194 579 b 196 574 206 581 205 584 b 98 813 486 998 571 866 b 644 753 407 497 320 407 b 316 404 323 394 328 398 b 463 520 656 570 647 311 b 643 209 612 79 558 -43 b 453 33 343 82 223 82 b -176 82 -232 -426 88 -452 b 307 -468 500 -303 618 -105 b 696 -170 765 -257 840 -336 z m 89 -440 b -216 -415 -161 70 223 70 b 341 70 449 21 553 -54 b 457 -268 293 -457 89 -440 z"},"x":{"x_min":0,"x_max":343,"ha":343,"o":"m 343 304 b 329 245 269 23 199 24 b 141 24 195 180 189 289 b 214 342 242 381 278 378 b 302 376 319 361 332 342 b 333 340 345 344 342 349 b 327 371 307 388 279 390 b 240 393 211 359 186 311 b 179 358 156 391 100 391 b 57 391 17 353 0 304 l 12 304 b 27 343 53 367 77 367 b 136 367 75 192 91 83 b 68 40 43 9 12 12 b -18 14 -35 37 -43 64 b -45 69 -56 63 -55 61 b -45 29 -24 2 11 0 b 45 -3 72 24 94 65 b 104 26 127 0 175 0 b 280 0 336 221 356 304 z"},")":{"x_min":0,"x_max":579,"ha":579,"o":"m 356 925 b 322 925 284 908 241 869 l 249 861 b 289 896 322 912 350 911 b 530 909 533 -91 349 -94 b 321 -94 288 -79 249 -44 l 241 -53 b 283 -91 321 -107 354 -107 b 652 -107 650 924 356 925 z"},"&":{"x_min":0,"x_max":947,"ha":947,"o":"m 753 116 b 837 233 847 378 695 520 b 514 374 831 406 723 141 l 713 148 b 594 243 496 329 426 412 b 549 532 673 650 684 768 b 712 1061 231 1001 214 683 b 209 591 271 504 366 413 b 211 282 59 147 82 5 b 123 -237 571 -123 745 105 b 816 48 889 -12 963 -76 b 972 -84 969 -84 979 -72 b 903 -5 827 57 753 116 z m 311 682 b 328 980 696 1044 670 770 b 660 662 534 554 402 442 b 340 523 307 602 311 682 z m 180 7 b 158 136 272 261 397 384 b 485 306 594 226 704 137 l 717 127 b 614 -90 214 -196 180 7 z"},"_":{"x_min":0,"x_max":757,"ha":757,"o":"m 343 54 l 60 84 b 61 -42 206 28 343 44 l 620 14 b 619 140 480 70 343 54 z"},"v":{"x_min":0,"x_max":413,"ha":413,"o":"m 413 304 b 396 234 323 116 238 169 b 251 199 317 389 249 390 b 161 402 148 225 223 164 b 190 87 139 35 103 36 b 20 37 92 316 103 370 b 108 394 17 397 12 370 b -3 290 -57 0 72 0 b 124 0 190 59 233 157 b 328 102 406 226 425 304 z m 228 176 b 186 218 204 356 247 363 b 296 362 238 199 228 176 z"},"O":{"x_min":0,"x_max":719,"ha":719,"o":"m 1052 1114 b 877 1101 726 923 589 752 b 552 859 488 932 394 932 b 179 932 140 603 339 602 b 404 602 466 635 528 684 b 564 384 467 -94 256 -95 b -46 -97 89 464 212 606 b 234 632 190 653 161 682 b 10 506 -63 -105 258 -107 b 570 -109 688 439 593 740 b 739 875 884 1068 1050 1102 z m 339 614 b 156 615 195 920 394 920 b 465 920 509 827 527 697 b 464 648 402 614 339 614 z"},"(":{"x_min":0,"x_max":616,"ha":616,"o":"m 228 -94 b 44 -91 47 909 227 911 b 255 912 288 896 328 861 l 336 869 b 293 908 255 925 221 925 b -73 924 -75 -107 223 -107 b 256 -107 294 -91 336 -53 l 328 -44 b 289 -79 256 -94 228 -94 z"},"C":{"x_min":0,"x_max":803,"ha":803,"o":"m 838 -387 b 832 -388 826 -388 820 -388 b 608 -393 499 -256 460 -97 b 686 -46 770 373 600 372 b 473 371 398 126 446 -88 b 437 -90 428 -90 419 -90 b 214 -90 242 300 355 599 b 457 612 577 661 649 739 b 802 903 659 1034 468 882 b 391 821 323 722 272 608 b -79 624 -30 926 155 925 b 280 925 271 803 200 740 b 182 724 216 702 236 719 b 319 795 319 937 155 937 b -44 938 -96 616 267 597 b 136 292 131 -103 415 -102 b 426 -102 438 -101 449 -100 b 488 -263 602 -405 820 -400 b 829 -400 838 -399 847 -398 z m 495 854 b 619 999 787 904 641 747 b 572 673 458 625 360 612 b 398 709 445 795 495 854 z m 600 360 b 755 361 666 -41 458 -86 b 411 121 483 360 600 360 z"},"W":{"x_min":0,"x_max":768,"ha":768,"o":"m 1258 1114 l 1253 1114 b 1037 1116 799 903 509 -14 b 543 226 536 558 438 760 b 435 766 425 761 425 758 b 394 449 227 188 76 -76 b 124 234 248 667 108 950 b 95 977 19 924 18 919 l 28 911 b 168 625 104 208 60 -98 b 57 -119 150 -106 153 -100 b 304 169 402 426 435 738 b 531 512 452 137 403 -95 b 400 -112 490 -109 495 -96 b 842 879 1071 1073 1250 1069 l 1261 1069 z"},"A":{"x_min":0,"x_max":1148,"ha":1148,"o":"m 1279 -261 b 1101 -232 978 -53 921 166 b 1004 228 1024 308 1011 370 b 1006 392 979 393 979 366 b 979 281 951 236 914 199 b 904 240 899 279 893 320 b 870 530 903 752 1001 899 b 1058 986 1155 1051 1259 1068 l 1263 1081 b 1154 1066 1040 1000 960 933 b 798 798 693 596 607 402 b 531 360 498 281 526 218 b 432 1 344 -171 195 -173 b -43 -175 -52 173 227 125 b 249 121 273 155 228 161 b -60 203 -112 -188 220 -186 b 393 -185 500 -40 594 152 b 628 136 675 125 734 126 b 796 126 857 138 910 161 b 969 -64 1096 -248 1283 -274 z m 734 138 b 676 137 632 147 599 163 b 638 243 675 331 713 420 b 720 421 727 421 734 421 b 800 420 871 391 881 319 b 886 275 893 232 903 189 b 863 155 807 138 734 138 z m 992 907 b 899 768 863 565 877 366 b 849 411 790 432 734 433 b 729 433 724 433 719 432 b 793 604 875 778 992 907 z m 533 233 b 517 284 543 344 598 382 z"},"f":{"x_min":0,"x_max":263,"ha":263,"o":"m 50 110 b 88 301 125 506 132 544 b 138 571 46 570 42 545 b 36 393 -233 -547 43 -574 b 242 -593 301 -10 197 94 b 231 158 258 234 275 304 l 263 304 b 246 236 221 167 189 105 b 179 117 157 133 143 137 b 100 150 68 135 50 110 z m 110 0 b 142 3 166 36 190 79 b 291 -77 202 -549 52 -549 b -72 -549 11 -76 37 46 b 45 22 73 -3 110 0 z m 114 16 b 83 16 97 108 149 108 b 162 108 173 102 182 91 b 159 48 135 16 114 16 z"},"Q":{"x_min":0,"x_max":746,"ha":746,"o":"m 396 741 b 243 745 260 930 405 923 b 464 919 505 866 530 787 b 492 757 447 739 396 741 z m 406 935 b 245 942 227 733 396 729 b 448 727 495 745 534 774 b 639 190 364 -96 273 -95 b -90 -90 143 535 273 711 b 291 734 238 768 221 786 b 10 589 -98 -137 274 -107 b 381 -98 466 -44 528 54 b 650 -141 740 -401 950 -415 b 1204 -433 1244 -70 990 -71 b 911 -71 832 -119 822 -202 b 820 -221 911 -224 913 -201 b 918 -128 967 -96 1018 -96 b 1189 -99 1170 -383 955 -369 b 754 -355 666 -96 542 77 b 665 291 684 639 580 819 b 555 869 483 937 406 935 z"},"w":{"x_min":0,"x_max":646,"ha":646,"o":"m 646 304 b 629 234 556 116 471 169 b 484 199 550 389 482 390 b 399 389 384 214 456 164 b 423 87 371 35 336 36 b 252 37 324 316 336 370 b 341 394 250 397 245 370 b 224 262 168 23 89 24 b 25 24 83 285 102 370 b 107 395 15 396 11 370 b -7 271 -53 -1 65 0 b 148 0 194 122 223 219 b 215 114 223 0 304 0 b 357 0 423 59 466 157 b 561 102 638 226 658 304 z m 461 176 b 428 217 440 347 477 353 b 525 352 471 199 461 176 z"},"-":{"x_min":0,"x_max":940,"ha":940,"o":"m 825 361 b 824 517 654 453 481 448 l 130 448 b 131 291 291 371 479 364 z"},"E":{"x_min":0,"x_max":849,"ha":849,"o":"m 712 -243 b 594 -243 534 -179 509 -81 b 760 16 817 401 689 429 b 557 459 446 138 495 -75 b 464 -86 429 -92 392 -92 b 75 -90 74 541 544 554 b 554 554 554 565 544 567 b 475 578 441 619 431 670 b 504 694 578 726 632 765 b 788 877 708 972 538 926 b 393 887 306 755 349 659 b 294 645 246 637 217 637 b -66 636 -37 981 186 975 b 287 972 303 878 258 804 b 247 786 278 764 290 783 b 340 867 333 983 186 987 b -52 994 -83 624 217 625 b 248 625 298 633 355 648 b 377 610 421 579 491 563 b -45 514 -34 -103 385 -104 b 426 -104 464 -97 498 -85 b 524 -187 587 -265 712 -258 z m 547 905 b 641 959 794 894 626 775 b 574 738 501 706 430 682 b 421 763 472 861 547 905 z m 687 418 b 801 392 742 22 506 -71 b 461 134 566 445 687 418 z"},"s":{"x_min":0,"x_max":354,"ha":354,"o":"m 175 198 b 180 52 -16 -13 -92 49 l -102 38 b -72 9 -24 -3 26 0 l 26 -1 b 193 2 329 149 367 304 l 354 304 b 331 209 270 122 190 66 b 225 99 247 143 249 198 b 258 398 56 354 42 441 b 40 451 53 496 97 514 b 133 530 111 589 57 583 b -19 575 0 485 0 431 b 0 395 5 355 0 298 l 12 298 b 18 363 14 403 15 436 b 15 453 17 469 21 485 b 21 324 169 379 175 198 z"},">":{"x_min":0,"x_max":641,"ha":641,"o":"m 65 54 b 70 -37 304 88 113 137 b 196 243 414 355 531 363 b 563 366 564 449 531 451 b 413 460 196 572 113 678 b 307 728 60 857 64 756 b 69 675 185 565 238 521 b 292 476 351 436 407 407 b 335 370 256 313 193 253 b 142 204 61 128 65 54 z"},"l":{"x_min":0,"x_max":307,"ha":307,"o":"m 344 701 b 390 818 363 878 310 878 b 77 878 -140 0 90 0 b 214 0 294 203 319 304 l 307 304 b 289 226 210 23 115 24 b 36 25 74 223 83 273 b 159 406 287 556 344 701 z m 320 856 b 354 856 368 795 333 705 b 280 572 166 432 89 307 b 106 390 216 857 320 856 z"},"8":{"x_min":0,"x_max":581,"ha":581,"o":"m 260 352 b 1029 1214 -13 930 -18 609 b -20 500 74 426 181 360 b 101 286 -55 149 -53 59 b -48 -129 499 -199 502 61 b 503 192 376 270 260 352 z m 73 608 b 78 908 953 1146 250 359 b 156 428 71 500 73 608 z m 490 61 b 487 -158 43 -113 38 59 b 36 145 128 281 193 352 b 204 346 215 339 226 332 l 164 266 l 173 258 l 236 326 b 364 250 491 177 490 61 z"},"\\":{"x_min":0,"x_max":715,"ha":715,"o":"m 327 410 b 295 543 285 938 120 885 l 315 406 b 347 272 356 -119 521 -66 z"},"e":{"x_min":0,"x_max":306,"ha":306,"o":"m 306 304 b 285 218 209 22 105 24 b 63 25 48 84 50 148 b 171 155 269 389 131 389 b -59 388 -110 -1 82 -1 b 218 -1 291 193 318 304 z m 150 366 b 230 353 153 166 52 158 b 59 255 102 374 150 366 z"},"b":{"x_min":0,"x_max":444,"ha":444,"o":"m 444 304 b 425 228 381 189 307 165 b 331 271 301 389 212 389 b 144 390 103 316 77 228 b 80 250 84 272 88 295 b 121 358 162 424 201 487 b 252 568 300 646 328 710 b 375 820 341 878 286 878 b 71 879 -16 229 -45 25 b -50 -9 41 -10 46 25 b 65 141 110 364 183 364 b 235 364 235 239 210 141 b 171 133 136 124 113 108 b 60 71 69 -1 150 0 b 230 0 282 70 304 150 b 388 176 436 219 456 304 z m 298 855 b 335 855 354 802 317 715 b 289 651 241 574 191 494 b 158 440 124 385 94 332 b 110 419 181 855 298 855 z m 135 24 b 89 25 95 73 122 95 b 141 110 171 119 206 127 b 189 69 163 23 135 24 z"},"%":{"x_min":0,"x_max":402,"ha":402,"o":"m 298 275 b 298 257 292 251 306 247 b 381 225 358 -33 272 -29 b 194 -26 235 269 304 283 l 303 287 b 196 273 157 -29 272 -33 b 369 -37 389 272 298 275 z m 115 507 b 211 504 231 812 141 816 b 140 798 135 791 149 787 b 223 766 201 508 115 511 b 37 514 77 810 146 823 l 146 827 b 39 814 -1 512 115 507 z m 401 885 b 236 938 226 543 194 409 l 0 -66 b 165 -119 174 272 206 406 z"},"m":{"x_min":0,"x_max":664,"ha":664,"o":"m 664 304 b 649 244 572 37 507 37 b 407 37 616 389 443 389 b 373 389 322 275 288 168 b 307 277 311 389 230 389 b 148 389 92 233 59 114 b 72 199 86 285 100 370 b 104 394 17 398 12 370 l -46 25 b -51 -10 39 -8 48 24 b 71 116 139 356 198 356 b 237 357 185 110 168 24 b 161 -10 252 -6 260 24 b 285 117 350 359 415 359 b 478 359 300 0 472 0 b 570 0 655 220 676 304 z"},"#":{"x_min":0,"x_max":848,"ha":848,"o":"m 468 358 b 465 377 462 395 461 408 l 466 465 l 728 442 b 728 531 576 506 467 489 l 487 746 b 398 746 424 594 442 485 b 423 482 407 480 393 479 l 335 484 l 355 746 b 267 746 292 595 310 486 l 56 508 b 56 420 205 443 315 461 b 318 440 320 422 322 408 l 317 354 l 55 376 b 54 287 207 312 315 329 l 296 73 b 384 73 359 225 341 333 b 360 336 378 338 392 340 l 448 334 l 428 73 b 517 73 491 224 472 333 l 726 310 b 727 399 577 375 468 358 z m 449 355 b 427 351 407 348 392 348 l 337 352 b 333 374 331 393 330 408 l 333 463 b 357 467 377 470 393 471 l 445 467 b 449 444 452 423 453 408 z"},",":{"x_min":0,"x_max":340,"ha":340,"o":"m 160 92 b 132 92 110 71 110 45 b 110 18 132 -3 160 -3 b 174 -3 187 2 196 11 b 191 -5 180 -16 167 -24 b 153 -32 162 -39 170 -56 b 196 -44 208 -3 211 26 b 215 59 198 92 160 92 z"},"n":{"x_min":0,"x_max":451,"ha":451,"o":"m 451 304 b 436 244 359 37 294 37 b 194 37 403 389 230 389 b 148 389 92 233 59 114 b 72 199 86 285 100 370 b 104 394 17 398 12 370 b -12 231 -34 99 -46 25 b -50 -4 38 -12 47 24 b 71 117 137 359 202 359 b 265 359 88 0 259 0 b 357 0 442 220 463 304 l 451 304 z"},"h":{"x_min":0,"x_max":453,"ha":453,"o":"m 453 304 b 439 244 361 37 296 37 b 197 37 405 389 232 389 b 149 389 92 227 59 107 b 67 159 77 225 89 295 b 122 358 163 424 202 487 b 253 568 301 646 329 710 b 376 820 342 878 287 878 b 72 879 -16 228 -44 25 b -48 -6 40 -11 50 25 b 75 117 139 359 204 359 b 267 359 90 0 261 0 b 360 0 445 220 465 304 z m 299 855 b 336 855 355 802 318 715 b 290 651 242 574 192 494 b 159 440 125 385 95 332 b 111 419 182 855 299 855 z"},"z":{"x_min":0,"x_max":358,"ha":358,"o":"m -58 -530 b -132 -531 -184 -442 -127 -306 b -68 -163 46 -113 168 -34 b 172 -229 90 -530 -58 -530 z m 3 83 b 138 104 160 31 168 -20 b 38 -106 -74 -153 -139 -302 b -215 -475 -141 -577 -38 -577 b 181 -577 293 -195 232 11 b 332 88 350 186 371 304 l 358 304 b 345 221 323 97 228 23 b 219 50 157 140 48 113 b 153 185 227 247 225 319 b 222 442 86 463 31 382 b 15 357 5 330 0 304 l 12 304 b 34 358 40 367 46 375 b 100 448 153 412 156 334 b 159 260 129 199 3 113 z"},"B":{"x_min":0,"x_max":884,"ha":884,"o":"m 430 -90 b 387 -91 349 -83 318 -67 b 404 31 428 239 457 447 b 511 451 558 466 596 488 b 755 346 693 -86 430 -90 z m 274 -52 b 253 -91 227 -113 190 -113 b 24 -113 34 203 257 231 l 272 231 b 277 237 272 244 264 244 b 20 221 2 -128 195 -125 b 243 -125 280 -107 311 -76 b 344 -92 384 -102 431 -102 b 800 -103 878 375 628 510 b 772 623 773 850 592 919 b 639 984 702 1024 793 1025 b 999 1025 1024 799 874 751 b 848 742 862 686 898 700 b 1088 774 1039 1037 793 1037 b 684 1036 604 997 543 933 b 521 937 496 940 469 940 b 119 938 -107 540 -105 142 l -92 143 b -66 523 153 933 469 928 b 491 927 511 924 529 917 b 447 820 405 674 378 522 b 347 503 341 476 368 460 b 337 261 326 62 274 -52 z m 576 532 b 544 542 507 547 472 546 b 493 678 521 803 574 892 b 669 816 659 635 576 532 z m 470 534 b 501 534 532 528 559 514 b 532 487 498 468 459 461 z m 375 506 l 370 472 b 360 481 362 494 375 506 z"},"K":{"x_min":0,"x_max":964,"ha":964,"o":"m 1214 -390 l 1202 -390 b 839 -390 875 257 628 407 b 783 554 728 905 926 906 b 1041 906 1052 763 950 744 b 920 739 931 696 952 700 b 1090 725 1089 918 926 918 b 698 917 749 566 546 454 b 572 636 590 816 640 923 l 614 918 b 379 623 488 -133 203 -133 b 18 -133 10 131 165 233 b 197 254 170 288 156 278 b -26 160 -11 -146 213 -144 b 420 -143 490 92 531 351 b 772 326 769 -401 1202 -402 b 1208 -402 1215 -402 1221 -401 z"},"R":{"x_min":0,"x_max":707,"ha":707,"o":"m 425 930 b 353 794 309 615 267 446 b 195 441 182 391 247 365 b 183 116 114 -96 -52 -95 b -268 -94 -270 203 -48 214 b -18 215 -34 249 -53 248 b -321 235 -337 -107 -48 -107 b 173 -107 269 102 338 350 l 345 350 b 359 349 373 350 386 351 b 488 154 474 -318 787 -317 b 978 -317 1043 -116 929 -54 b 911 -44 896 -86 919 -99 b 1010 -148 923 -306 802 -305 b 571 -303 601 165 446 361 b 747 439 832 894 502 940 b 558 1065 634 1149 756 1150 b 934 1151 927 928 781 914 b 761 912 753 877 787 880 b 969 897 988 1162 756 1162 b 604 1162 504 1073 432 943 z m 359 430 b 403 605 438 790 497 929 b 712 889 635 476 428 381 b 408 402 385 419 359 430 z m 250 377 b 194 399 218 433 265 436 z m 345 362 l 341 362 l 351 401 b 361 391 370 379 378 365 b 368 363 357 362 345 362 z"},"T":{"x_min":0,"x_max":589,"ha":589,"o":"m -231 510 b -240 516 -249 523 -256 531 b -339 620 -295 768 -197 830 b -57 919 209 914 487 909 b 329 689 394 -38 122 -89 b -96 -123 -176 143 -1 257 b 27 275 2 318 -15 307 b -218 175 -123 -139 124 -101 b 519 -48 439 702 520 908 b 839 901 1141 896 1308 1041 l 1296 1055 b 1000 807 49 1105 -220 858 b -307 778 -348 613 -269 514 b -260 503 -251 493 -241 485 z"},"P":{"x_min":0,"x_max":848,"ha":848,"o":"m 31 -95 b -184 -94 -186 202 36 214 b 54 215 58 249 28 248 b -241 235 -253 -107 35 -107 b 279 -107 371 147 441 426 b 950 374 1068 892 584 935 b 639 1062 716 1149 839 1150 b 1019 1151 1010 925 861 914 b 842 912 847 876 873 878 b 1056 894 1072 1162 839 1162 b 685 1162 584 1070 512 936 b 294 909 238 630 379 559 b 307 267 238 -96 31 -95 z m 382 571 b 257 637 307 891 505 923 b 453 821 415 697 382 571 z m 444 438 b 481 588 579 922 579 925 b 941 895 846 403 444 438 z"},"|":{"x_min":0,"x_max":489,"ha":489,"o":"m 247 408 l 286 924 b 113 924 224 545 235 408 l 195 -105 b 368 -105 257 271 247 408 z"},"t":{"x_min":0,"x_max":253,"ha":253,"o":"m 508 726 b 471 569 317 623 153 681 b 169 755 176 777 179 789 b 184 817 93 821 87 789 b 85 776 81 760 70 709 b -86 761 -235 784 -278 598 l -269 596 b -217 764 -80 736 65 684 b 31 508 -112 0 91 0 b 191 0 247 227 266 304 l 253 304 b 240 251 185 30 117 30 b 6 34 113 473 148 653 b 310 592 467 538 516 725 z"},"M":{"x_min":0,"x_max":1259,"ha":1259,"o":"m 707 929 b 623 788 599 542 554 326 b 491 377 408 406 306 400 b -64 380 -116 -113 247 -112 b 732 -110 640 601 715 880 b 724 736 827 524 760 278 b 748 234 848 265 853 271 b 961 444 973 828 1183 928 b 957 635 893 -457 1420 -475 l 1419 -463 b 983 -439 1098 669 1206 934 b 1209 942 1203 949 1195 946 b 1029 882 939 661 860 473 b 833 656 723 804 730 926 z m 247 -100 b -99 -102 -50 368 307 388 b 411 391 492 361 551 311 b 504 88 433 -99 247 -100 z"},"g":{"x_min":0,"x_max":466,"ha":466,"o":"m 466 304 b 442 210 370 149 294 95 b 316 211 331 312 339 370 b 343 397 252 394 248 370 b 232 274 184 27 95 25 b 10 24 61 366 152 366 b 182 366 214 335 210 292 b 210 287 222 285 223 292 b 227 351 180 389 131 389 b -64 388 -94 0 66 0 b 142 0 189 85 218 179 b 210 131 201 78 190 23 b 70 -63 -52 -171 -104 -395 b -138 -544 -95 -627 -29 -627 b 159 -627 264 -63 291 78 b 375 137 453 200 478 304 z m -39 -595 b -87 -595 -120 -516 -92 -398 b -43 -184 72 -78 187 6 b 168 -94 85 -594 -39 -595 z"},"j":{"x_min":0,"x_max":229,"ha":229,"o":"m 229 304 b 205 210 133 149 57 95 b 79 211 94 312 102 370 b 106 397 15 394 11 370 b -8 256 -25 135 -47 23 b -167 -63 -289 -171 -341 -395 b -375 -544 -332 -627 -266 -627 b -78 -627 27 -63 54 78 b 138 137 216 200 241 304 z m -276 -595 b -324 -595 -357 -516 -329 -398 b -280 -184 -165 -78 -50 6 b -69 -94 -152 -594 -276 -595 z m 73 462 b 88 462 100 475 100 491 b 100 508 88 520 73 520 b 58 520 46 508 46 491 b 46 475 58 462 73 462 z"},"i":{"x_min":0,"x_max":233,"ha":233,"o":"m 233 304 b 219 245 159 23 89 24 b 25 24 82 284 101 370 b 107 394 16 397 11 370 b -7 271 -53 -1 65 0 b 170 0 225 221 245 304 z m 73 448 b 88 448 100 462 100 478 b 100 494 88 507 73 507 b 59 507 47 494 47 478 b 47 462 59 448 73 448 z"},"y":{"x_min":0,"x_max":437,"ha":437,"o":"m 437 304 b 413 210 341 149 265 95 b 287 211 302 312 310 370 b 314 397 223 394 219 370 b 208 309 165 29 92 29 b 19 29 92 325 102 370 b 107 394 16 397 11 370 b -3 299 -57 0 67 -1 b 121 -1 158 65 182 143 b 176 102 169 62 161 23 b 41 -63 -81 -171 -133 -395 b -167 -544 -124 -627 -58 -627 b 130 -627 235 -63 262 78 b 346 137 424 200 449 304 z m -68 -595 b -116 -595 -149 -516 -121 -398 b -72 -184 43 -78 158 6 b 139 -94 56 -594 -68 -595 z"},"@":{"x_min":0,"x_max":786,"ha":786,"o":"m 721 292 b 689 15 497 -114 326 -114 b -112 -111 3 582 416 573 b 539 570 644 492 641 342 b 637 191 544 24 497 24 b 433 24 491 285 510 370 b 515 393 423 398 419 371 b 405 265 366 28 277 26 b 192 24 242 367 334 366 b 347 366 360 349 356 306 b 355 301 398 294 399 301 b 403 360 362 389 313 389 b 117 388 88 1 248 0 b 325 0 369 88 396 184 b 392 89 406 0 473 0 b 549 0 652 182 654 344 b 656 510 531 593 386 595 b -110 600 -221 -143 298 -142 b 490 -142 698 -10 733 291 z"},".":{"x_min":0,"x_max":356,"ha":356,"o":"m 150 92 b 123 92 100 71 100 45 b 100 18 123 -3 150 -3 b 178 -3 200 18 200 45 b 200 71 178 92 150 92 z"},"p":{"x_min":0,"x_max":439,"ha":439,"o":"m 439 304 b 421 228 377 189 303 165 b 326 271 297 389 208 389 b 151 390 113 338 87 270 b 92 310 97 344 101 370 b 104 394 14 397 10 370 b 2 316 -12 212 -33 94 b -106 -44 -212 -181 -273 -321 b -320 -431 -286 -489 -230 -489 b -65 -490 25 -100 71 170 b 95 269 131 364 179 364 b 231 364 231 239 205 141 b 167 133 132 124 108 108 b 55 71 65 -1 146 0 b 226 0 278 70 299 150 b 383 176 430 219 451 304 z m -243 -466 b -280 -466 -299 -413 -262 -326 b -206 -197 -109 -69 -39 57 b -55 -30 -126 -466 -243 -466 z m 131 24 b 85 25 90 73 117 95 b 137 110 167 119 201 127 b 185 69 159 23 131 24 z"},"X":{"x_min":0,"x_max":675,"ha":675,"o":"m -233 -344 b 25 -301 215 76 314 293 b 389 60 474 -147 648 -150 b 724 -151 803 -66 767 -5 b 766 -3 754 -7 757 -12 b 783 -58 728 -127 669 -127 b 511 -128 453 142 370 411 b 608 879 748 991 844 995 b 932 998 989 971 1016 927 l 1035 946 b 1018 982 937 1042 825 1035 b 725 1029 554 924 331 530 b 251 758 138 956 -89 948 b -96 948 -102 947 -108 947 l -108 935 b -102 935 -95 936 -89 936 b 106 927 193 678 274 421 b 168 204 34 -281 -234 -331 z"},"*":{"x_min":0,"x_max":749,"ha":749,"o":"m 385 670 l 608 761 b 533 884 496 786 377 682 l 415 924 b 271 924 336 841 363 682 b 243 786 206 884 132 761 l 354 670 l 120 571 b 194 449 244 551 360 653 l 324 408 b 466 408 407 502 380 652 b 496 551 546 450 620 571 z"},"Y":{"x_min":0,"x_max":703,"ha":703,"o":"m 254 186 b 364 187 449 306 500 414 b 470 285 448 155 425 34 b -196 36 -250 -514 94 -517 b 378 -520 458 -208 509 16 b 615 0 714 -58 828 -107 l 841 -72 b 730 -27 619 13 512 28 b 625 535 677 1212 1386 1203 b 1393 1203 1393 1215 1386 1215 b 823 1222 623 872 519 487 b 476 375 382 199 254 198 b 10 198 237 764 357 900 b 375 920 321 957 305 973 b 141 829 -113 189 254 186 z m 90 -505 b -230 -502 -180 23 423 22 b 388 -162 337 -508 90 -505 z"},"c":{"x_min":0,"x_max":288,"ha":288,"o":"m 288 304 b 267 220 196 28 95 25 b 10 24 62 368 151 366 b 164 366 186 348 174 309 b 156 252 213 256 217 301 b 222 359 180 389 131 389 b -64 388 -94 0 66 0 b 200 0 273 195 300 304 z"},"!":{"x_min":0,"x_max":563,"ha":563,"o":"m 176 -16 b 150 -16 130 -35 130 -59 b 130 -83 150 -103 176 -103 b 201 -103 221 -83 221 -59 b 221 -35 201 -16 176 -16 z m 402 925 b 392 922 298 913 300 904 b 385 602 187 425 167 76 b 164 29 194 36 196 72 b 213 424 494 613 402 925 z"},"/":{"x_min":0,"x_max":536,"ha":536,"o":"m 280 412 b 227 286 2 -38 166 -93 l 292 408 b 345 535 569 856 405 911 z"},"[":{"x_min":0,"x_max":833,"ha":833,"o":"m 379 -31 b 354 -122 246 -57 150 -19 b 253 176 268 651 160 842 b 253 880 355 938 379 850 b 390 811 429 827 475 827 b 450 1000 278 903 153 853 b 19 1068 -109 738 149 838 b 255 653 239 173 140 -16 b -102 73 18 -248 144 -31 b 269 -79 449 -185 475 -9 b 429 -8 390 8 379 -31 z"},"6":{"x_min":0,"x_max":474,"ha":474,"o":"m 431 922 b -16 928 -231 -106 161 -109 b 298 -109 362 130 369 239 b 392 591 42 536 25 299 b 78 299 112 280 119 325 b 152 514 371 511 353 240 b 346 140 288 -23 161 -22 b -196 -20 -8 794 398 834 b 449 839 430 861 431 922 z"},"r":{"x_min":0,"x_max":315,"ha":315,"o":"m 315 304 b 300 245 241 23 170 24 b 99 24 177 302 187 350 b 207 437 104 445 38 429 b 42 461 57 570 9 565 b -104 552 -92 406 0 411 b 8 411 15 412 23 414 b 19 391 11 350 0 304 l 12 304 b 24 351 32 392 36 416 b 73 424 106 435 96 391 b 83 318 19 -1 146 0 b 251 0 307 221 327 304 z m 25 427 b 15 425 7 423 0 423 b -63 423 -27 553 9 553 b 44 553 29 449 25 427 z"},"2":{"x_min":0,"x_max":670,"ha":670,"o":"m 544 622 b 581 804 486 900 373 914 b 52 954 -12 476 210 453 b 241 450 277 459 314 486 b 284 535 286 569 243 545 b 208 524 179 516 156 519 b 33 536 92 916 332 884 b 418 872 486 794 454 634 b 399 364 18 271 -62 -64 b -63 -70 -52 -73 -50 -68 b 53 203 336 116 364 19 b 377 -23 401 -10 456 -18 b 487 145 128 229 -24 8 b 100 277 493 368 544 622 z"},"{":{"x_min":0,"x_max":833,"ha":833,"o":"m 423 -36 b 359 -122 252 -9 161 15 b 174 134 156 312 109 410 b 155 509 173 685 161 804 b 252 828 358 941 422 854 b 444 825 480 849 521 860 b 427 1018 263 848 160 816 b 152 880 134 925 107 925 b 35 925 11 777 149 801 b 159 689 144 519 103 423 b -31 670 -38 132 103 398 b 145 303 159 131 149 18 b 11 41 36 -106 108 -106 b 134 -106 152 -62 160 3 b 263 -28 428 -199 522 -41 b 481 -30 445 -6 423 -36 z m 107 913 b 128 913 142 872 148 813 b 30 789 49 913 107 913 z m 108 -94 b 50 -94 30 29 148 6 b 141 -53 128 -94 108 -94 z"},"9":{"x_min":0,"x_max":428,"ha":428,"o":"m 188 924 b 83 930 -30 812 -37 569 b -49 216 300 284 308 521 b 256 520 221 537 215 491 b 189 302 -30 298 -21 568 b -15 751 88 843 185 838 b 502 820 359 27 -46 -26 b -97 -33 -78 -54 -76 -115 b 373 -106 529 902 188 924 z"}," ":{"x_min":0,"x_max":298,"ha":298,"o":""},"I":{"x_min":0,"x_max":611,"ha":611,"o":"m 624 907 b 643 932 565 979 562 979 b 295 958 157 422 421 386 b 412 309 403 233 390 164 b 345 191 296 208 241 209 b -49 214 -82 -186 168 -185 b 615 -182 388 644 624 907 z m 163 -173 b -60 -175 -37 202 241 197 b 293 196 341 177 387 148 b 353 -35 296 -172 163 -173 z m 422 398 b 177 432 308 941 559 967 b 472 845 448 618 422 398 z"},"H":{"x_min":0,"x_max":923,"ha":923,"o":"m 484 876 b 376 748 338 528 305 320 b 164 268 60 189 62 -1 b 62 -16 97 -6 97 0 b 99 207 209 237 300 288 b 259 38 221 -184 66 -184 b -121 -184 -122 92 35 193 b 60 209 36 238 18 227 b -163 108 -148 -197 76 -195 b 292 -193 358 61 399 332 b 475 359 564 381 656 415 b 564 27 605 -440 900 -450 b 1115 -457 1158 -242 1050 -153 b 1031 -138 1014 -166 1025 -174 b 1127 -255 1076 -446 900 -438 b 662 -427 664 68 756 458 b 835 497 962 599 1031 707 b 1173 930 989 1030 825 813 b 755 720 697 581 659 429 b 575 397 485 376 402 352 b 431 545 447 745 499 863 z m 871 786 b 991 1014 1133 913 1021 714 b 962 609 836 510 760 473 b 789 594 828 705 871 786 z"},"4":{"x_min":0,"x_max":680,"ha":680,"o":"m 412 256 b 455 489 524 688 535 924 b 535 926 524 929 523 924 b 503 828 193 82 42 273 b 10 313 1 286 -53 255 b -26 214 4 193 36 188 b 104 165 231 209 332 229 b 304 127 285 17 284 -105 b 363 -105 374 -126 376 -57 b 380 49 392 146 408 237 b 446 237 473 225 480 193 b 488 158 530 173 573 173 b 569 254 500 267 412 256 z m 336 243 b 251 225 160 199 94 195 b 267 262 461 703 519 869 b 495 653 397 464 336 243 z"},"~":{"x_min":0,"x_max":1312,"ha":1312,"o":"m 1162 505 b 1054 3 202 935 70 312 l 82 309 b 185 814 1037 -116 1173 503 z"},"D":{"x_min":0,"x_max":1048,"ha":1048,"o":"m 372 231 b 376 236 370 244 364 244 b 120 221 102 -128 295 -125 b 343 -125 381 -106 411 -75 b 443 -92 482 -102 528 -102 b 986 -104 1099 775 692 919 b 739 984 803 1024 893 1025 b 1101 1025 1124 795 970 749 b 951 744 955 686 991 700 b 1182 773 1140 1037 893 1037 b 784 1036 703 997 643 933 b 619 937 595 939 571 939 b 228 940 12 534 4 161 l 16 163 b 49 536 264 928 571 927 b 591 927 612 925 632 920 b 429 684 468 156 380 -39 b 363 -81 331 -113 290 -113 b 124 -113 134 203 358 231 z m 525 -90 b 483 -90 448 -82 419 -67 b 574 112 525 655 680 901 b 978 742 862 -89 525 -90 z"},"^":{"x_min":0,"x_max":724,"ha":724,"o":"m 551 578 b 476 637 397 789 391 872 b 389 894 330 894 329 871 b 323 788 245 635 171 576 b 130 735 14 472 166 560 b 175 521 185 449 238 449 b 238 463 243 483 230 484 b 188 488 182 529 174 565 b 239 606 318 702 360 784 b 403 702 483 608 549 567 b 541 531 536 490 494 485 b 480 484 486 466 486 450 b 539 451 548 523 556 562 b 708 477 591 738 551 578 z"},"0":{"x_min":0,"x_max":562,"ha":562,"o":"m 281 880 b 279 821 260 802 306 788 b 545 719 472 -105 197 -95 b -52 -85 77 859 298 904 l 296 916 b -45 873 -173 -92 196 -107 b 506 -119 570 868 281 880 z"},"F":{"x_min":0,"x_max":857,"ha":857,"o":"m 1597 1180 b 1537 1030 1305 883 787 949 b 609 972 229 1020 71 859 b -50 736 -20 491 189 503 b 193 503 197 504 201 504 l 199 516 b 195 516 192 515 188 515 b -3 504 -41 740 83 847 b 213 958 489 931 674 907 b 634 808 609 660 585 507 b 546 520 508 533 472 537 l 472 525 b 507 521 545 509 583 496 b 538 206 493 -94 342 -95 b 141 -96 145 146 306 168 b 328 171 339 259 306 255 b 105 230 83 -107 350 -107 b 568 -106 620 188 665 473 b 678 471 691 469 705 468 b 910 461 936 671 820 679 b 749 683 710 599 760 560 b 763 557 769 567 767 569 b 727 602 761 671 819 667 b 919 660 894 473 705 480 b 692 481 680 482 667 485 b 692 643 716 797 766 895 b 1329 824 1573 1006 1624 1180 z"},"`":{"x_min":0,"x_max":286,"ha":286,"o":"m 137 506 b 88 627 17 545 131 500 b 183 377 253 459 137 506 z"},"k":{"x_min":0,"x_max":457,"ha":457,"o":"m 457 304 b 441 239 361 32 290 32 b 239 31 287 143 250 196 b 335 263 349 389 241 389 b 151 389 98 267 66 155 b 73 197 80 245 89 295 b 122 358 163 424 203 487 b 253 568 301 646 329 710 b 376 820 342 878 287 878 b 72 879 -16 227 -44 24 b -48 -8 42 -9 49 25 b 69 124 126 366 215 366 b 260 366 239 281 200 222 b 196 223 190 223 185 223 b 119 224 78 157 138 156 b 152 156 168 159 176 161 b 174 99 160 0 251 0 b 362 0 447 211 469 304 z m 299 855 b 336 855 355 802 318 715 b 290 651 242 574 192 494 b 159 440 125 385 95 332 b 111 419 182 855 299 855 z m 129 168 b 96 167 167 236 174 191 b 168 185 143 168 129 168 z"},"u":{"x_min":0,"x_max":444,"ha":444,"o":"m 444 304 b 429 245 370 23 299 24 b 236 24 292 280 312 368 b 318 397 226 396 222 372 b 210 307 164 29 92 29 b 20 29 93 325 102 370 b 108 394 16 397 11 370 b -2 299 -57 0 68 -1 b 132 -1 173 97 199 197 b 193 98 205 0 276 0 b 380 0 435 221 456 304 z"},"]":{"x_min":0,"x_max":833,"ha":833,"o":"m 692 -16 b 638 188 619 667 683 838 b 941 738 813 1068 679 853 b 553 903 382 1000 357 827 b 403 827 442 811 452 850 b 477 938 579 880 672 842 b 564 651 579 176 682 -19 b 586 -57 478 -122 452 -31 b 442 8 403 -8 357 -9 b 383 -185 562 -79 688 -31 b 814 -248 934 73 692 -16 z"},"U":{"x_min":0,"x_max":737,"ha":737,"o":"m -144 598 b 47 588 136 785 248 912 b 166 771 12 443 -20 205 b -58 -74 127 -163 299 47 b 372 135 442 270 509 410 b 374 15 324 -432 658 -432 l 662 -432 l 660 -420 b 234 -406 668 693 848 899 b 864 917 810 989 783 960 b 752 927 720 877 687 817 b 553 578 459 262 290 55 b 129 -143 -31 -71 31 198 b 88 449 286 810 349 903 b 369 933 282 963 272 954 b 149 836 60 606 -134 609 z"},"o":{"x_min":0,"x_max":391,"ha":391,"o":"m 391 304 b 373 232 313 98 227 98 l 221 98 l 221 100 b 266 193 274 320 224 335 b 212 374 180 389 142 389 b -77 389 -88 0 95 0 b 138 0 183 27 215 87 b 219 86 223 86 227 86 b 321 86 384 225 403 304 z m 115 23 b 7 21 57 370 169 370 b 186 370 202 361 211 337 b 88 345 83 121 203 90 b 179 47 145 23 115 23 z m 211 104 b 210 103 209 102 209 101 b 125 126 142 328 214 325 b 216 317 217 308 217 299 b 217 293 229 292 229 299 b 229 306 228 313 227 320 b 259 297 249 186 211 104 z"},"N":{"x_min":0,"x_max":969,"ha":969,"o":"m -8 -380 b -233 -378 -220 -57 35 -60 l 42 -60 l 40 -48 l 35 -48 b -236 -45 -249 -390 -8 -391 b 478 -394 379 459 491 740 l 511 727 b 527 463 667 98 666 -93 b 666 -115 754 -115 760 -94 b 837 165 905 1126 1211 1132 b 1407 1136 1399 860 1213 878 b 1190 880 1186 847 1208 844 b 1446 818 1471 1144 1210 1144 b 892 1144 792 512 718 121 b 666 303 580 526 550 706 b 577 694 605 687 635 687 b 832 686 854 1039 656 1030 b 153 1006 544 -451 -8 -380 z m 657 1018 b 838 1017 816 698 635 699 b 604 699 575 707 547 720 b 524 869 543 985 657 1018 z m 510 741 l 494 753 b 499 780 506 806 512 831 b 509 803 509 773 510 741 z"},"+":{"x_min":0,"x_max":1000,"ha":1000,"o":"m 805 361 b 804 516 632 432 463 411 l 502 752 b 348 752 430 580 450 412 l 110 448 b 111 295 283 375 450 397 l 411 57 b 565 57 485 231 464 398 z"},"G":{"x_min":0,"x_max":892,"ha":892,"o":"m 528 908 b 64 913 -128 -69 358 -67 b 544 -66 652 175 649 341 b 696 403 743 480 830 508 b 517 333 815 -782 338 -786 b 7 -789 34 -291 326 -296 b 397 -297 466 -337 498 -422 b 505 -441 588 -406 577 -378 b 544 -295 463 -253 377 -251 b 15 -246 -32 -796 338 -798 b 946 -802 612 487 910 519 b 917 519 917 531 909 531 b 770 534 705 437 648 360 b 642 432 613 487 558 493 b 421 508 387 266 510 253 b 564 247 601 281 637 325 b 632 167 529 -55 364 -55 b 9 -55 164 896 537 896 b 598 896 609 830 612 790 b 614 770 662 767 660 797 b 655 858 620 907 528 908 z m 511 265 b 405 276 435 494 556 481 b 610 475 635 419 637 345 b 600 297 564 259 511 265 z"},"q":{"x_min":0,"x_max":476,"ha":476,"o":"m 323 -45 b 401 44 460 189 488 304 l 476 304 b 448 191 390 50 314 -37 b 304 -30 293 -25 281 -21 b 304 140 338 304 352 370 b 357 394 266 396 261 370 b 244 286 190 28 95 25 b 10 24 61 357 152 366 b 192 370 225 348 221 305 b 221 300 235 295 236 302 b 240 361 189 389 131 389 b -64 389 -94 0 66 0 b 139 0 190 79 223 169 b 213 109 204 42 198 -25 b 139 -48 143 -111 192 -116 b 190 -203 196 -411 312 -413 b 445 -415 421 -128 323 -45 z m 321 -386 b 237 -385 265 -152 272 -91 b 287 -81 301 -69 315 -54 b 404 -129 426 -387 321 -386 z m 193 -104 b 158 -100 156 -58 197 -38 b 195 -61 194 -83 193 -104 z m 280 -33 b 289 -36 298 -41 306 -46 b 295 -57 285 -67 274 -75 z"},"d":{"x_min":0,"x_max":460,"ha":460,"o":"m 558 701 b 604 818 578 878 525 878 b 386 878 254 571 217 319 b 212 366 174 389 131 389 b -64 388 -94 0 66 0 b 137 0 180 74 207 160 b 212 65 241 0 302 0 b 398 0 455 233 472 304 l 460 304 b 448 251 387 22 318 21 b 271 21 272 131 297 273 b 373 406 501 556 558 701 z m 535 856 b 568 856 582 795 547 705 b 494 572 380 432 304 307 b 320 390 430 857 535 856 z m 95 25 b 10 24 61 366 152 366 b 166 366 208 344 204 301 b 204 297 204 296 214 298 b 215 226 171 27 95 25 z"},"1":{"x_min":0,"x_max":598,"ha":598,"o":"m 406 924 b 396 808 282 340 72 459 b 31 482 32 447 4 399 b 190 290 312 520 372 715 b 307 460 169 225 166 -105 b 225 -105 257 -124 258 -72 b 268 325 401 586 418 924 b 418 925 406 927 406 924 z"},"5":{"x_min":0,"x_max":588,"ha":588,"o":"m 249 598 b 204 600 165 581 132 552 b 175 652 181 803 193 909 b 263 851 478 769 498 903 b 450 916 419 941 404 902 b 371 820 245 877 195 924 l 183 923 b 168 804 165 615 101 518 l 106 515 l 111 511 b 145 554 192 589 249 586 b 477 575 412 -115 117 -93 b -101 -80 -103 280 108 269 b 164 266 148 283 165 348 b -98 406 -159 -88 117 -105 b 524 -128 609 586 249 598 z"}}}
